# xmcd
# 
# Track frame offsets:
#     150
#     18104
#     35104
#     51992
#     68048
#     80523
#     99539
#     119628
#     139195
#     153032
# 
# Disc length: 2215
# 
# Revision: 0
# Processed by: cddbd v1.5.1PL2 Copyright (c) Steve Scherf et al.
# Submitted via: BonkEnc v1.0beta3
# 
DISCID=8208a50a
DTITLE=Gary Allen - Mixed
DYEAR=1900
DGENRE=Country
TTITLE0=Tough Little Boys
TTITLE1=Life Ain't Always Beautiful
TTITLE2=Man To Man
TTITLE3=Nothing On But The Radio
TTITLE4=Her Man
TTITLE5=Best I Ever Had
TTITLE6=Songs About Rain
TTITLE7=Smoke Rings In The Dark
TTITLE8=Right Where I Need To Be
TTITLE9=It Would Be You
EXTD=
EXTT0=
EXTT1=
EXTT2=
EXTT3=
EXTT4=
EXTT5=
EXTT6=
EXTT7=
EXTT8=
EXTT9=
PLAYORDER=
